<svg width="20" height="20" viewBox="0 0 20 20" fill="none" xmlns="http://www.w3.org/2000/svg">
<g id="AnnotationOutline">
<path id="Vector" d="M5.83333 6.66671H14.1667M5.83333 10H9.16667M10 16.6667L6.66667 13.3334H4.16667C3.72464 13.3334 3.30072 13.1578 2.98816 12.8452C2.67559 12.5327 2.5 12.1087 2.5 11.6667V5.00004C2.5 4.55801 2.67559 4.13409 2.98816 3.82153C3.30072 3.50897 3.72464 3.33337 4.16667 3.33337H15.8333C16.2754 3.33337 16.6993 3.50897 17.0118 3.82153C17.3244 4.13409 17.5 4.55801 17.5 5.00004V11.6667C17.5 12.1087 17.3244 12.5327 17.0118 12.8452C16.6993 13.1578 16.2754 13.3334 15.8333 13.3334H13.3333L10 16.6667Z" stroke="#949494" stroke-width="2" stroke-linecap="round" stroke-linejoin="round"/>
</g>
</svg>
