<svg width="24" height="24" viewBox="0 0 24 24" fill="none" xmlns="http://www.w3.org/2000/svg">
<g id="fluent:mail-16-filled">
<path id="Vector" d="M5.4 4C4.49826 4 3.63346 4.35821 2.99584 4.99584C2.35821 5.63346 2 6.49826 2 7.4V7.7417L12.2 13.2344L22.4 7.7434V7.4C22.4 6.49826 22.0418 5.63346 21.4042 4.99584C20.7665 4.35821 19.9017 4 19 4H5.4ZM22.4 9.6729L12.6029 14.948C12.4791 15.0147 12.3406 15.0496 12.2 15.0496C12.0594 15.0496 11.9209 15.0147 11.7971 14.948L2 9.6729V17.6C2 18.5017 2.35821 19.3665 2.99584 20.0042C3.63346 20.6418 4.49826 21 5.4 21H19C19.9017 21 20.7665 20.6418 21.4042 20.0042C22.0418 19.3665 22.4 18.5017 22.4 17.6V9.6729Z" fill="#DF2326"/>
</g>
</svg>
