<svg width="192" height="168" viewBox="0 0 192 168" fill="none" xmlns="http://www.w3.org/2000/svg">
<g id="Group">
<g id="Group_2">
<path id="Vector" d="M5.84609 166.935H1V162.113H5.84609V166.935Z" stroke="#E5215E" stroke-opacity="0.26" stroke-width="1.31615" stroke-miterlimit="10"/>
<path id="Vector_2" d="M42.8813 166.953H38.0352V162.131H42.8813V166.953Z" fill="#E6215E" fill-opacity="0.4"/>
<path id="Vector_3" d="M79.9047 166.935H75.0586V162.113H79.9047V166.935Z" stroke="#E5215E" stroke-opacity="0.26" stroke-width="1.31615" stroke-miterlimit="10"/>
<path id="Vector_4" d="M116.941 166.935H112.095V162.113H116.941V166.935Z" stroke="#E5215E" stroke-opacity="0.26" stroke-width="1.31615" stroke-miterlimit="10"/>
<path id="Vector_5" d="M153.977 166.935H149.131V162.113H153.977V166.935Z" stroke="#E5215E" stroke-opacity="0.26" stroke-width="1.31615" stroke-miterlimit="10"/>
<path id="Vector_6" d="M191 166.935H186.154V162.113H191V166.935Z" stroke="#E5215E" stroke-opacity="0.26" stroke-width="1.31615" stroke-miterlimit="10"/>
</g>
<g id="Group_3">
<path id="Vector_7" d="M5.84609 140.074H1V135.253H5.84609V140.074Z" stroke="#E5215E" stroke-opacity="0.26" stroke-width="1.31615" stroke-miterlimit="10"/>
<path id="Vector_8" d="M42.8813 140.074H38.0352V135.253H42.8813V140.074Z" stroke="#E5215E" stroke-opacity="0.4" stroke-width="1.31615" stroke-miterlimit="10"/>
<path id="Vector_9" d="M79.9047 140.074H75.0586V135.253H79.9047V140.074Z" stroke="#E5215E" stroke-opacity="0.26" stroke-width="1.31615" stroke-miterlimit="10"/>
<path id="Vector_10" d="M153.977 140.074H149.131V135.253H153.977V140.074Z" stroke="#E5215E" stroke-opacity="0.26" stroke-width="1.31615" stroke-miterlimit="10"/>
<path id="Vector_11" d="M191 140.074H186.154V135.253H191V140.074Z" stroke="#E5215E" stroke-opacity="0.26" stroke-width="1.31615" stroke-miterlimit="10"/>
</g>
<g id="Group_4">
<path id="Vector_12" d="M5.88129 113.23H1.03516V108.409H5.88129V113.23Z" fill="#E6215E" fill-opacity="0.4"/>
<path id="Vector_13" d="M42.8813 113.221H38.0352V108.4H42.8813V113.221Z" stroke="#E5215E" stroke-opacity="0.26" stroke-width="1.31615" stroke-miterlimit="10"/>
<path id="Vector_14" d="M79.9047 113.221H75.0586V108.4H79.9047V113.221Z" stroke="#E5215E" stroke-opacity="0.26" stroke-width="1.31615" stroke-miterlimit="10"/>
<path id="Vector_15" d="M116.941 113.221H112.095V108.4H116.941V113.221Z" stroke="#E5215E" stroke-opacity="0.4" stroke-width="1.31615" stroke-miterlimit="10"/>
<path id="Vector_16" d="M153.976 113.221H149.13V108.4H153.976V113.221Z" stroke="#E5215E" stroke-opacity="0.26" stroke-width="1.31615" stroke-miterlimit="10"/>
<path id="Vector_17" d="M190.999 113.221H186.153V108.4H190.999V113.221Z" stroke="#E5215E" stroke-opacity="0.26" stroke-width="1.31615" stroke-miterlimit="10"/>
</g>
<g id="Group_5">
<path id="Vector_18" d="M5.84609 86.3596H1V81.5384H5.84609V86.3596Z" stroke="#E5215E" stroke-opacity="0.26" stroke-width="1.31615" stroke-miterlimit="10"/>
<path id="Vector_19" d="M42.8813 86.3596H38.0352V81.5384H42.8813V86.3596Z" stroke="#E5215E" stroke-opacity="0.26" stroke-width="1.31615" stroke-miterlimit="10"/>
<path id="Vector_20" d="M79.9047 86.3596H75.0586V81.5384H79.9047V86.3596Z" stroke="#E5215E" stroke-opacity="0.26" stroke-width="1.31615" stroke-miterlimit="10"/>
<path id="Vector_21" d="M116.941 86.3596H112.095V81.5384H116.941V86.3596Z" stroke="#E5215E" stroke-opacity="0.26" stroke-width="1.31615" stroke-miterlimit="10"/>
<path id="Vector_22" d="M153.977 86.3596H149.131V81.5384H153.977V86.3596Z" stroke="#E5215E" stroke-opacity="0.26" stroke-width="1.31615" stroke-miterlimit="10"/>
<path id="Vector_23" d="M191 86.3596H186.154V81.5384H191V86.3596Z" stroke="#E5215E" stroke-opacity="0.26" stroke-width="1.31615" stroke-miterlimit="10"/>
</g>
<g id="Group_6">
<path id="Vector_24" d="M5.84609 59.5085H1V54.6873H5.84609V59.5085Z" stroke="#E5215E" stroke-opacity="0.26" stroke-width="1.31615" stroke-miterlimit="10"/>
<path id="Vector_25" d="M42.8813 59.5085H38.0352V54.6873H42.8813V59.5085Z" fill="#E6215E" fill-opacity="0.4"/>
<path id="Vector_26" d="M79.9047 59.5085H75.0586V54.6873H79.9047V59.5085Z" fill="#E6215E" fill-opacity="0.4"/>
<path id="Vector_27" d="M116.941 59.5085H112.095V54.6873H116.941V59.5085Z" stroke="#E5215E" stroke-opacity="0.26" stroke-width="1.31615" stroke-miterlimit="10"/>
<path id="Vector_28" d="M153.977 59.5085H149.131V54.6873H153.977V59.5085Z" stroke="#E5215E" stroke-opacity="0.4" stroke-width="1.31615" stroke-miterlimit="10"/>
<path id="Vector_29" d="M191 59.5085H186.154V54.6873H191V59.5085Z" stroke="#E5215E" stroke-opacity="0.26" stroke-width="1.31615" stroke-miterlimit="10"/>
</g>
<g id="Group_7">
<path id="Vector_30" d="M5.84609 32.6584H1V27.8373H5.84609V32.6584Z" stroke="#E5215E" stroke-opacity="0.26" stroke-width="1.31615" stroke-miterlimit="10"/>
<path id="Vector_31" d="M42.8813 32.6584H38.0352V27.8373H42.8813V32.6584Z" stroke="#E5215E" stroke-opacity="0.26" stroke-width="1.31615" stroke-miterlimit="10"/>
<path id="Vector_32" d="M79.9047 32.6584H75.0586V27.8373H79.9047V32.6584Z" stroke="#E5215E" stroke-opacity="0.26" stroke-width="1.31615" stroke-miterlimit="10"/>
<path id="Vector_33" d="M116.941 32.6584H112.095V27.8373H116.941V32.6584Z" fill="#E6215E" fill-opacity="0.4"/>
<path id="Vector_34" d="M153.977 32.6584H149.131V27.8373H153.977V32.6584Z" stroke="#E5215E" stroke-opacity="0.26" stroke-width="1.31615" stroke-miterlimit="10"/>
<path id="Vector_35" d="M191 32.6584H186.154V27.8373H191V32.6584Z" stroke="#E5215E" stroke-opacity="0.26" stroke-width="1.31615" stroke-miterlimit="10"/>
</g>
<g id="Group_8">
<path id="Vector_36" d="M5.84609 5.79663H1V0.975481H5.84609V5.79663Z" stroke="#E5215E" stroke-opacity="0.26" stroke-width="1.31615" stroke-miterlimit="10"/>
<path id="Vector_37" d="M42.8813 5.79639H38.0352V0.975236H42.8813V5.79639Z" stroke="#E5215E" stroke-opacity="0.26" stroke-width="1.31615" stroke-miterlimit="10"/>
<path id="Vector_38" d="M79.9047 5.79639H75.0586V0.975236H79.9047V5.79639Z" stroke="#E5215E" stroke-opacity="0.26" stroke-width="1.31615" stroke-miterlimit="10"/>
<path id="Vector_39" d="M116.941 5.79639H112.095V0.975236H116.941V5.79639Z" stroke="#E5215E" stroke-opacity="0.26" stroke-width="1.31615" stroke-miterlimit="10"/>
<path id="Vector_40" d="M153.977 5.79639H149.131V0.975236H153.977V5.79639Z" fill="#E6215E" fill-opacity="0.4"/>
<path id="Vector_41" d="M191 5.79639H186.154V0.975236H191V5.79639Z" stroke="#E5215E" stroke-opacity="0.26" stroke-width="1.31615" stroke-miterlimit="10"/>
</g>
</g>
</svg>
