<svg width="77" height="76" viewBox="0 0 77 76" fill="none" xmlns="http://www.w3.org/2000/svg">
<g id="Group">
<path id="Vector" d="M76.6996 42.4682L33.9877 0.523682C32.7415 0.63494 31.4953 0.857464 30.249 1.19124L76.1331 46.251C76.3597 44.9159 76.5863 43.692 76.6996 42.4682Z" fill="white"/>
<path id="Vector_2" d="M65.7104 11.3158C62.1982 7.86678 58.1196 5.19657 53.5879 3.30518L73.9808 23.3317C71.9415 18.7701 69.2225 14.7648 65.7104 11.3158Z" fill="white"/>
<path id="Vector_3" d="M11.1025 64.9427C14.6146 68.3917 18.6932 71.0619 23.2249 72.9533L2.83203 52.9268C4.87132 57.4884 7.59038 61.4937 11.1025 64.9427Z" fill="white"/>
<path id="Vector_4" d="M61.1791 68.7253L7.25117 15.7661C6.6847 16.5449 6.00495 17.435 5.43848 18.3251L58.46 70.3941C59.4797 69.9491 60.2727 69.2815 61.1791 68.7253Z" fill="white"/>
<path id="Vector_5" d="M46.5638 75.1784L0.679771 30.1187C0.453183 31.3425 0.226588 32.5663 0 33.7902L42.7118 75.7347C44.0713 75.6235 45.3176 75.4009 46.5638 75.1784Z" fill="white"/>
<path id="Vector_6" d="M71.2621 57.9333L18.2405 5.86426C17.3342 6.42055 16.4278 6.97683 15.6348 7.64439L69.5627 60.6035C70.1291 59.7135 70.6956 58.8234 71.2621 57.9333Z" fill="white"/>
</g>
</svg>
