<svg width="315" height="341" viewBox="0 0 315 341" fill="none" xmlns="http://www.w3.org/2000/svg">
<g id="Group" opacity="0.2">
<g id="Group_2">
<g id="Group_3">
<path id="Vector" d="M92.7739 81.8517L97.0244 81.8118L96.9848 77.5836L92.7343 77.6234L92.7739 81.8517Z" fill="#FF0404"/>
<path id="Vector_2" d="M93.0613 98.4979L97.0918 98.4601L97.0542 94.4507L93.0238 94.4885L93.0613 98.4979Z" fill="#FF0404"/>
<path id="Vector_3" d="M93.3177 115.157L97.1387 115.122L97.103 111.321L93.2821 111.356L93.3177 115.157Z" fill="#FF0404"/>
<path id="Vector_4" d="M93.5964 131.812L97.1973 131.778L97.1637 128.196L93.5628 128.23L93.5964 131.812Z" fill="#FF0404"/>
<path id="Vector_5" d="M93.8506 148.488L97.2314 148.456L97.1999 145.093L93.8191 145.125L93.8506 148.488Z" fill="#FF0404"/>
<path id="Vector_6" d="M94.1222 165.129L97.293 165.099L97.2634 161.945L94.0926 161.975L94.1222 165.129Z" fill="#FF0404"/>
<path id="Vector_7" d="M94.3764 181.804L97.3271 181.777L97.2996 178.841L94.3489 178.869L94.3764 181.804Z" fill="#FF0404"/>
<path id="Vector_8" d="M94.6678 198.445L97.3984 198.42L97.373 195.703L94.6423 195.729L94.6678 198.445Z" fill="#FF0404"/>
<path id="Vector_9" d="M94.9114 215.123L97.4316 215.099L97.4081 212.592L94.8879 212.616L94.9114 215.123Z" fill="#FF0404"/>
<path id="Vector_10" d="M95.1919 231.774L97.4922 231.753L97.4707 229.464L95.1705 229.486L95.1919 231.774Z" fill="#FF0404"/>
<path id="Vector_11" d="M95.4352 248.452L97.5254 248.432L97.5059 246.353L95.4157 246.372L95.4352 248.452Z" fill="#FF0404"/>
<path id="Vector_12" d="M95.7218 265.086L97.5918 265.069L97.5744 263.208L95.7044 263.226L95.7218 265.086Z" fill="#FF0404"/>
</g>
</g>
<g id="Group_4">
<g id="Group_5">
<path id="Vector_13" d="M106.434 81.722L110.685 81.6821L110.645 77.4539L106.394 77.4937L106.434 81.722Z" fill="#FF0404"/>
<path id="Vector_14" d="M106.712 98.3683L110.742 98.3306L110.705 94.3212L106.674 94.359L106.712 98.3683Z" fill="#FF0404"/>
<path id="Vector_15" d="M106.958 115.049L110.779 115.014L110.744 111.213L106.923 111.248L106.958 115.049Z" fill="#FF0404"/>
<path id="Vector_16" d="M107.245 131.697L110.846 131.663L110.812 128.081L107.211 128.115L107.245 131.697Z" fill="#FF0404"/>
<path id="Vector_17" d="M107.512 148.356L110.893 148.324L110.861 144.961L107.48 144.993L107.512 148.356Z" fill="#FF0404"/>
<path id="Vector_18" d="M107.77 165.015L110.94 164.986L110.911 161.832L107.74 161.861L107.77 165.015Z" fill="#FF0404"/>
<path id="Vector_19" d="M108.039 181.672L110.989 181.645L110.962 178.709L108.011 178.737L108.039 181.672Z" fill="#FF0404"/>
<path id="Vector_20" d="M108.302 198.337L111.032 198.311L111.007 195.595L108.276 195.62L108.302 198.337Z" fill="#FF0404"/>
<path id="Vector_21" d="M108.561 215.003L111.081 214.98L111.058 212.473L108.537 212.496L108.561 215.003Z" fill="#FF0404"/>
<path id="Vector_22" d="M108.838 231.663L111.139 231.641L111.117 229.353L108.817 229.374L108.838 231.663Z" fill="#FF0404"/>
<path id="Vector_23" d="M109.097 248.319L111.188 248.299L111.168 246.22L109.078 246.24L109.097 248.319Z" fill="#FF0404"/>
<path id="Vector_24" d="M109.344 265.005L111.214 264.988L111.196 263.128L109.326 263.145L109.344 265.005Z" fill="#FF0404"/>
</g>
</g>
<g id="Group_6">
<g id="Group_7">
<path id="Vector_25" d="M120.093 81.602L124.344 81.5622L124.304 77.3339L120.054 77.3738L120.093 81.602Z" fill="#FF0404"/>
<path id="Vector_26" d="M120.36 98.2617L124.391 98.2239L124.353 94.2145L120.323 94.2523L120.36 98.2617Z" fill="#FF0404"/>
<path id="Vector_27" d="M120.616 114.922L124.437 114.886L124.401 111.085L120.58 111.121L120.616 114.922Z" fill="#FF0404"/>
<path id="Vector_28" d="M120.883 131.581L124.483 131.548L124.45 127.966L120.849 127.999L120.883 131.581Z" fill="#FF0404"/>
<path id="Vector_29" d="M121.159 148.241L124.54 148.21L124.509 144.846L121.128 144.878L121.159 148.241Z" fill="#FF0404"/>
<path id="Vector_30" d="M121.416 164.901L124.587 164.872L124.557 161.718L121.387 161.747L121.416 164.901Z" fill="#FF0404"/>
<path id="Vector_31" d="M121.682 181.562L124.633 181.534L124.605 178.599L121.655 178.626L121.682 181.562Z" fill="#FF0404"/>
<path id="Vector_32" d="M121.949 198.232L124.68 198.206L124.654 195.49L121.924 195.515L121.949 198.232Z" fill="#FF0404"/>
<path id="Vector_33" d="M122.221 214.874L124.741 214.85L124.718 212.343L122.197 212.366L122.221 214.874Z" fill="#FF0404"/>
<path id="Vector_34" d="M122.471 231.553L124.771 231.531L124.75 229.243L122.45 229.265L122.471 231.553Z" fill="#FF0404"/>
<path id="Vector_35" d="M122.753 248.195L124.843 248.175L124.823 246.096L122.733 246.116L122.753 248.195Z" fill="#FF0404"/>
<path id="Vector_36" d="M123.003 264.875L124.873 264.858L124.856 262.998L122.986 263.015L123.003 264.875Z" fill="#FF0404"/>
</g>
</g>
<g id="Group_8">
<g id="Group_9">
<path id="Vector_37" d="M133.774 81.4471L138.024 81.4072L137.985 77.179L133.734 77.2188L133.774 81.4471Z" fill="#FF0404"/>
<path id="Vector_38" d="M134.042 98.1059L138.072 98.0681L138.035 94.0588L134.004 94.0965L134.042 98.1059Z" fill="#FF0404"/>
<path id="Vector_39" d="M134.285 114.778L138.106 114.742L138.071 110.941L134.25 110.977L134.285 114.778Z" fill="#FF0404"/>
<path id="Vector_40" d="M134.563 131.425L138.164 131.391L138.13 127.809L134.53 127.843L134.563 131.425Z" fill="#FF0404"/>
<path id="Vector_41" d="M134.82 148.097L138.201 148.065L138.17 144.702L134.789 144.733L134.82 148.097Z" fill="#FF0404"/>
<path id="Vector_42" d="M135.09 164.751L138.261 164.721L138.231 161.567L135.06 161.596L135.09 164.751Z" fill="#FF0404"/>
<path id="Vector_43" d="M135.355 181.425L138.306 181.397L138.278 178.462L135.327 178.49L135.355 181.425Z" fill="#FF0404"/>
<path id="Vector_44" d="M135.636 198.067L138.367 198.042L138.342 195.325L135.611 195.351L135.636 198.067Z" fill="#FF0404"/>
<path id="Vector_45" d="M135.877 214.746L138.397 214.722L138.374 212.215L135.854 212.239L135.877 214.746Z" fill="#FF0404"/>
<path id="Vector_46" d="M136.147 231.403L138.447 231.381L138.426 229.093L136.126 229.115L136.147 231.403Z" fill="#FF0404"/>
<path id="Vector_47" d="M136.404 248.062L138.494 248.043L138.475 245.963L136.384 245.983L136.404 248.062Z" fill="#FF0404"/>
<path id="Vector_48" d="M136.653 264.752L138.523 264.735L138.506 262.874L136.636 262.892L136.653 264.752Z" fill="#FF0404"/>
</g>
</g>
<g id="Group_10">
<g id="Group_11">
<path id="Vector_49" d="M147.423 81.3174L151.674 81.2776L151.634 77.0493L147.384 77.0892L147.423 81.3174Z" fill="#FF0404"/>
<path id="Vector_50" d="M147.701 97.9762L151.731 97.9385L151.694 93.9291L147.663 93.9668L147.701 97.9762Z" fill="#FF0404"/>
<path id="Vector_51" d="M147.947 114.648L151.768 114.612L151.732 110.811L147.911 110.847L147.947 114.648Z" fill="#FF0404"/>
<path id="Vector_52" d="M148.225 131.294L151.826 131.26L151.793 127.678L148.192 127.712L148.225 131.294Z" fill="#FF0404"/>
<path id="Vector_53" d="M148.48 147.977L151.861 147.945L151.83 144.582L148.449 144.614L148.48 147.977Z" fill="#FF0404"/>
<path id="Vector_54" d="M148.753 164.619L151.924 164.589L151.894 161.435L148.723 161.465L148.753 164.619Z" fill="#FF0404"/>
<path id="Vector_55" d="M149.003 181.298L151.954 181.27L151.927 178.335L148.976 178.362L149.003 181.298Z" fill="#FF0404"/>
<path id="Vector_56" d="M149.298 197.938L152.028 197.912L152.003 195.196L149.272 195.221L149.298 197.938Z" fill="#FF0404"/>
<path id="Vector_57" d="M149.54 214.614L152.061 214.59L152.037 212.083L149.517 212.107L149.54 214.614Z" fill="#FF0404"/>
<path id="Vector_58" d="M149.826 231.251L152.126 231.23L152.105 228.942L149.804 228.963L149.826 231.251Z" fill="#FF0404"/>
<path id="Vector_59" d="M150.064 247.943L152.154 247.923L152.135 245.844L150.045 245.864L150.064 247.943Z" fill="#FF0404"/>
<path id="Vector_60" d="M150.349 264.581L152.219 264.564L152.201 262.704L150.331 262.721L150.349 264.581Z" fill="#FF0404"/>
</g>
</g>
<g id="Group_12">
<g id="Group_13">
<path id="Vector_61" d="M161.072 81.1998L165.322 81.16L165.283 76.9317L161.032 76.9716L161.072 81.1998Z" fill="#FF0404"/>
<path id="Vector_62" d="M161.339 97.8591L165.369 97.8214L165.332 93.812L161.301 93.8498L161.339 97.8591Z" fill="#FF0404"/>
<path id="Vector_63" d="M161.607 114.516L165.428 114.48L165.392 110.679L161.571 110.715L161.607 114.516Z" fill="#FF0404"/>
<path id="Vector_64" d="M161.884 131.174L165.485 131.14L165.452 127.558L161.851 127.592L161.884 131.174Z" fill="#FF0404"/>
<path id="Vector_65" d="M162.15 147.835L165.531 147.803L165.5 144.44L162.119 144.472L162.15 147.835Z" fill="#FF0404"/>
<path id="Vector_66" d="M162.41 164.491L165.581 164.461L165.551 161.307L162.381 161.337L162.41 164.491Z" fill="#FF0404"/>
<path id="Vector_67" d="M162.664 181.166L165.615 181.138L165.588 178.203L162.637 178.23L162.664 181.166Z" fill="#FF0404"/>
<path id="Vector_68" d="M162.947 197.808L165.678 197.783L165.652 195.066L162.922 195.092L162.947 197.808Z" fill="#FF0404"/>
<path id="Vector_69" d="M163.19 214.494L165.71 214.471L165.686 211.964L163.166 211.987L163.19 214.494Z" fill="#FF0404"/>
<path id="Vector_70" d="M163.482 231.137L165.782 231.115L165.761 228.827L163.46 228.849L163.482 231.137Z" fill="#FF0404"/>
<path id="Vector_71" d="M163.723 247.813L165.813 247.793L165.794 245.714L163.704 245.733L163.723 247.813Z" fill="#FF0404"/>
<path id="Vector_72" d="M164.011 264.449L165.881 264.432L165.863 262.571L163.993 262.589L164.011 264.449Z" fill="#FF0404"/>
</g>
</g>
<g id="Group_14">
<g id="Group_15">
<path id="Vector_73" d="M174.72 81.0828L178.971 81.043L178.931 76.8147L174.681 76.8546L174.72 81.0828Z" fill="#FF0404"/>
<path id="Vector_74" d="M175 97.7396L179.03 97.7018L178.993 93.6924L174.962 93.7302L175 97.7396Z" fill="#FF0404"/>
<path id="Vector_75" d="M175.244 114.41L179.065 114.374L179.03 110.573L175.209 110.609L175.244 114.41Z" fill="#FF0404"/>
<path id="Vector_76" d="M175.523 131.058L179.124 131.025L179.09 127.443L175.49 127.476L175.523 131.058Z" fill="#FF0404"/>
<path id="Vector_77" d="M175.787 147.732L179.168 147.7L179.136 144.337L175.756 144.369L175.787 147.732Z" fill="#FF0404"/>
<path id="Vector_78" d="M176.071 164.362L179.242 164.332L179.213 161.178L176.042 161.208L176.071 164.362Z" fill="#FF0404"/>
<path id="Vector_79" d="M176.327 181.034L179.277 181.007L179.25 178.071L176.299 178.099L176.327 181.034Z" fill="#FF0404"/>
<path id="Vector_80" d="M176.605 197.691L179.336 197.665L179.31 194.949L176.58 194.974L176.605 197.691Z" fill="#FF0404"/>
<path id="Vector_81" d="M176.849 214.365L179.369 214.341L179.346 211.834L176.825 211.858L176.849 214.365Z" fill="#FF0404"/>
<path id="Vector_82" d="M177.134 231.005L179.435 230.984L179.413 228.695L177.113 228.717L177.134 231.005Z" fill="#FF0404"/>
<path id="Vector_83" d="M177.385 247.681L179.476 247.661L179.456 245.582L177.366 245.602L177.385 247.681Z" fill="#FF0404"/>
<path id="Vector_84" d="M177.671 264.32L179.541 264.302L179.524 262.442L177.654 262.46L177.671 264.32Z" fill="#FF0404"/>
</g>
</g>
<g id="Group_16">
<g id="Group_17">
<path id="Vector_85" d="M188.38 80.9627L192.631 80.9229L192.591 76.6947L188.341 76.7345L188.38 80.9627Z" fill="#FF0404"/>
<path id="Vector_86" d="M188.659 97.6099L192.689 97.5721L192.652 93.5628L188.621 93.6006L188.659 97.6099Z" fill="#FF0404"/>
<path id="Vector_87" d="M188.903 114.282L192.724 114.247L192.688 110.446L188.867 110.482L188.903 114.282Z" fill="#FF0404"/>
<path id="Vector_88" d="M189.181 130.929L192.782 130.895L192.749 127.313L189.148 127.347L189.181 130.929Z" fill="#FF0404"/>
<path id="Vector_89" d="M189.436 147.602L192.816 147.57L192.785 144.207L189.404 144.239L189.436 147.602Z" fill="#FF0404"/>
<path id="Vector_90" d="M189.706 164.257L192.877 164.228L192.847 161.074L189.677 161.103L189.706 164.257Z" fill="#FF0404"/>
<path id="Vector_91" d="M189.969 180.932L192.92 180.904L192.892 177.969L189.942 177.997L189.969 180.932Z" fill="#FF0404"/>
<path id="Vector_92" d="M190.251 197.576L192.981 197.55L192.956 194.834L190.225 194.859L190.251 197.576Z" fill="#FF0404"/>
<path id="Vector_93" d="M190.509 214.236L193.029 214.212L193.006 211.705L190.485 211.728L190.509 214.236Z" fill="#FF0404"/>
<path id="Vector_94" d="M190.776 230.895L193.076 230.873L193.055 228.585L190.754 228.607L190.776 230.895Z" fill="#FF0404"/>
<path id="Vector_95" d="M191.031 247.556L193.121 247.537L193.102 245.457L191.011 245.477L191.031 247.556Z" fill="#FF0404"/>
<path id="Vector_96" d="M191.278 264.245L193.148 264.228L193.131 262.367L191.261 262.385L191.278 264.245Z" fill="#FF0404"/>
</g>
</g>
<g id="Group_18">
<g id="Group_19">
<path id="Vector_97" d="M202.029 80.833L206.279 80.7932L206.24 76.565L201.989 76.6048L202.029 80.833Z" fill="#FF0404"/>
<path id="Vector_98" d="M202.305 97.4924L206.336 97.4546L206.298 93.4452L202.268 93.483L202.305 97.4924Z" fill="#FF0404"/>
<path id="Vector_99" d="M202.561 114.152L206.382 114.116L206.346 110.315L202.525 110.351L202.561 114.152Z" fill="#FF0404"/>
<path id="Vector_100" d="M202.828 130.812L206.429 130.778L206.395 127.196L202.794 127.23L202.828 130.812Z" fill="#FF0404"/>
<path id="Vector_101" d="M203.095 147.482L206.476 147.45L206.444 144.087L203.063 144.119L203.095 147.482Z" fill="#FF0404"/>
<path id="Vector_102" d="M203.351 164.142L206.521 164.112L206.492 160.958L203.321 160.988L203.351 164.142Z" fill="#FF0404"/>
<path id="Vector_103" d="M203.618 180.802L206.568 180.775L206.541 177.839L203.59 177.867L203.618 180.802Z" fill="#FF0404"/>
<path id="Vector_104" d="M203.894 197.462L206.625 197.436L206.6 194.72L203.869 194.746L203.894 197.462Z" fill="#FF0404"/>
<path id="Vector_105" d="M204.151 214.123L206.671 214.099L206.647 211.592L204.127 211.616L204.151 214.123Z" fill="#FF0404"/>
<path id="Vector_106" d="M204.417 230.783L206.717 230.762L206.695 228.473L204.395 228.495L204.417 230.783Z" fill="#FF0404"/>
<path id="Vector_107" d="M204.672 247.454L206.763 247.435L206.743 245.355L204.653 245.375L204.672 247.454Z" fill="#FF0404"/>
<path id="Vector_108" d="M204.94 264.112L206.81 264.095L206.792 262.235L204.922 262.252L204.94 264.112Z" fill="#FF0404"/>
</g>
</g>
<g id="Group_20">
<g id="Group_21">
<path id="Vector_109" d="M215.723 80.6684L219.974 80.6286L219.934 76.4004L215.683 76.4402L215.723 80.6684Z" fill="#FF0404"/>
<path id="Vector_110" d="M215.979 97.3389L220.01 97.3011L219.972 93.2917L215.942 93.3295L215.979 97.3389Z" fill="#FF0404"/>
<path id="Vector_111" d="M216.247 114.007L220.068 113.972L220.033 110.171L216.212 110.207L216.247 114.007Z" fill="#FF0404"/>
<path id="Vector_112" d="M216.514 130.666L220.115 130.633L220.082 127.051L216.481 127.084L216.514 130.666Z" fill="#FF0404"/>
<path id="Vector_113" d="M216.768 147.339L220.148 147.307L220.117 143.944L216.736 143.976L216.768 147.339Z" fill="#FF0404"/>
<path id="Vector_114" d="M217.042 163.982L220.213 163.952L220.183 160.798L217.012 160.828L217.042 163.982Z" fill="#FF0404"/>
<path id="Vector_115" d="M217.291 180.659L220.242 180.631L220.215 177.696L217.264 177.724L217.291 180.659Z" fill="#FF0404"/>
<path id="Vector_116" d="M217.576 197.301L220.307 197.275L220.281 194.559L217.55 194.584L217.576 197.301Z" fill="#FF0404"/>
<path id="Vector_117" d="M217.827 213.986L220.348 213.962L220.324 211.455L217.804 211.479L217.827 213.986Z" fill="#FF0404"/>
<path id="Vector_118" d="M218.097 230.643L220.397 230.621L220.376 228.333L218.076 228.354L218.097 230.643Z" fill="#FF0404"/>
<path id="Vector_119" d="M218.352 247.305L220.442 247.285L220.423 245.206L218.333 245.225L218.352 247.305Z" fill="#FF0404"/>
<path id="Vector_120" d="M218.616 263.966L220.486 263.948L220.469 262.088L218.599 262.106L218.616 263.966Z" fill="#FF0404"/>
</g>
</g>
<g id="Group_22">
<g id="Group_23">
<path id="Vector_121" d="M229.361 80.562L233.611 80.5222L233.572 76.2939L229.321 76.3337L229.361 80.562Z" fill="#FF0404"/>
<path id="Vector_122" d="M229.627 97.2311L233.657 97.1933L233.62 93.1839L229.589 93.2217L229.627 97.2311Z" fill="#FF0404"/>
<path id="Vector_123" d="M229.884 113.89L233.705 113.855L233.669 110.054L229.848 110.089L229.884 113.89Z" fill="#FF0404"/>
<path id="Vector_124" d="M230.164 130.537L233.765 130.503L233.731 126.921L230.13 126.955L230.164 130.537Z" fill="#FF0404"/>
<path id="Vector_125" d="M230.44 147.197L233.821 147.166L233.79 143.803L230.409 143.834L230.44 147.197Z" fill="#FF0404"/>
<path id="Vector_126" d="M230.7 163.854L233.871 163.825L233.842 160.67L230.671 160.7L230.7 163.854Z" fill="#FF0404"/>
<path id="Vector_127" d="M230.953 180.528L233.903 180.5L233.876 177.565L230.925 177.592L230.953 180.528Z" fill="#FF0404"/>
<path id="Vector_128" d="M231.236 197.181L233.967 197.156L233.941 194.439L231.211 194.465L231.236 197.181Z" fill="#FF0404"/>
<path id="Vector_129" d="M231.478 213.856L233.998 213.833L233.975 211.325L231.454 211.349L231.478 213.856Z" fill="#FF0404"/>
<path id="Vector_130" d="M231.761 230.499L234.062 230.478L234.04 228.19L231.74 228.211L231.761 230.499Z" fill="#FF0404"/>
<path id="Vector_131" d="M232.011 247.175L234.102 247.155L234.082 245.076L231.992 245.096L232.011 247.175Z" fill="#FF0404"/>
<path id="Vector_132" d="M232.301 263.813L234.171 263.795L234.153 261.935L232.283 261.953L232.301 263.813Z" fill="#FF0404"/>
</g>
</g>
<g id="Group_24">
<g id="Group_25">
<path id="Vector_133" d="M243.02 80.4421L247.271 80.4022L247.231 76.174L242.98 76.2138L243.02 80.4421Z" fill="#FF0404"/>
<path id="Vector_134" d="M243.286 97.1014L247.316 97.0636L247.279 93.0543L243.248 93.092L243.286 97.1014Z" fill="#FF0404"/>
<path id="Vector_135" d="M243.542 113.761L247.363 113.725L247.328 109.924L243.507 109.96L243.542 113.761Z" fill="#FF0404"/>
<path id="Vector_136" d="M243.809 130.42L247.41 130.386L247.377 126.804L243.776 126.838L243.809 130.42Z" fill="#FF0404"/>
<path id="Vector_137" d="M244.076 147.079L247.457 147.048L247.426 143.685L244.045 143.716L244.076 147.079Z" fill="#FF0404"/>
<path id="Vector_138" d="M244.344 163.739L247.515 163.709L247.485 160.555L244.314 160.585L244.344 163.739Z" fill="#FF0404"/>
<path id="Vector_139" d="M244.627 180.393L247.578 180.366L247.551 177.43L244.6 177.458L244.627 180.393Z" fill="#FF0404"/>
<path id="Vector_140" d="M244.893 197.053L247.624 197.028L247.599 194.311L244.868 194.337L244.893 197.053Z" fill="#FF0404"/>
<path id="Vector_141" d="M245.154 213.71L247.675 213.687L247.651 211.18L245.131 211.203L245.154 213.71Z" fill="#FF0404"/>
<path id="Vector_142" d="M245.422 230.368L247.723 230.347L247.701 228.058L245.401 228.08L245.422 230.368Z" fill="#FF0404"/>
<path id="Vector_143" d="M245.663 247.043L247.753 247.024L247.733 244.944L245.643 244.964L245.663 247.043Z" fill="#FF0404"/>
<path id="Vector_144" d="M245.96 263.684L247.83 263.666L247.813 261.806L245.943 261.823L245.96 263.684Z" fill="#FF0404"/>
</g>
</g>
</g>
</svg>
