<svg width="76" height="116" viewBox="0 0 76 116" fill="none" xmlns="http://www.w3.org/2000/svg">
<g id="Group">
<path id="Vector" d="M71.2459 61.0507C73.4712 61.0507 75.2751 59.2561 75.2751 57.0423C75.2751 54.8286 73.4712 53.0339 71.2459 53.0339C69.0207 53.0339 67.2168 54.8286 67.2168 57.0423C67.2168 59.2561 69.0207 61.0507 71.2459 61.0507Z" fill="#FF7779"/>
<path id="Vector_2" d="M55.2482 46.7857C56.7888 48.3183 59.3958 48.3183 61.0549 46.7857C62.5955 45.253 62.5955 42.6594 61.0549 41.0088C59.5143 39.4762 56.9073 39.4762 55.2482 41.0088C53.5891 42.6594 53.5891 45.253 55.2482 46.7857Z" fill="#FF7779"/>
<path id="Vector_3" d="M42.0939 33.6995C43.6345 35.2321 46.2416 35.2321 47.9006 33.6995C49.4412 32.1669 49.4412 29.5732 47.9006 27.9227C46.3601 26.39 43.753 26.39 42.0939 27.9227C40.4348 29.5732 40.4348 32.1669 42.0939 33.6995Z" fill="#FF7779"/>
<path id="Vector_4" d="M28.9396 20.6131C30.4802 22.1457 33.0872 22.1457 34.7463 20.6131C36.2869 19.0804 36.2869 16.4868 34.7463 14.8362C33.2058 13.3036 30.5987 13.3036 28.9396 14.8362C27.2805 16.4868 27.2805 19.0804 28.9396 20.6131Z" fill="#FF7779"/>
<path id="Vector_5" d="M18.6297 8.70577C20.855 8.70577 22.6589 6.91115 22.6589 4.69737C22.6589 2.48359 20.855 0.688965 18.6297 0.688965C16.4045 0.688965 14.6006 2.48359 14.6006 4.69737C14.6006 6.91115 16.4045 8.70577 18.6297 8.70577Z" fill="#FF7779"/>
<path id="Vector_6" d="M54.7736 73.4297C56.3141 74.9623 58.9212 74.9623 60.5803 73.4297C62.1208 71.8971 62.1208 69.3034 60.5803 67.6529C59.0397 66.1203 56.4327 66.1203 54.7736 67.6529C53.1145 69.3034 53.1145 71.8971 54.7736 73.4297Z" fill="#FF7779"/>
<path id="Vector_7" d="M44.4637 61.5224C46.6889 61.5224 48.4929 59.7278 48.4929 57.514C48.4929 55.3002 46.6889 53.5056 44.4637 53.5056C42.2385 53.5056 40.4346 55.3002 40.4346 57.514C40.4346 59.7278 42.2385 61.5224 44.4637 61.5224Z" fill="#FF7779"/>
<path id="Vector_8" d="M28.466 47.2571C30.0065 48.7897 32.6137 48.7897 34.2727 47.2571C35.9318 45.7245 35.8133 43.1308 34.2727 41.4803C32.7322 39.9477 30.125 39.9477 28.466 41.4803C26.8069 43.1308 26.8069 45.7245 28.466 47.2571Z" fill="#FF7779"/>
<path id="Vector_9" d="M15.3117 34.1709C16.8522 35.7035 19.4593 35.7035 21.1184 34.1709C22.6589 32.6383 22.6589 30.0446 21.1184 28.3941C19.5778 26.8615 16.9707 26.8615 15.3117 28.3941C13.6526 30.0446 13.6526 32.6383 15.3117 34.1709Z" fill="#FF7779"/>
<path id="Vector_10" d="M5.00179 22.2636C7.22703 22.2636 9.03093 20.469 9.03093 18.2552C9.03093 16.0414 7.22703 14.2468 5.00179 14.2468C2.77656 14.2468 0.972656 16.0414 0.972656 18.2552C0.972656 20.469 2.77656 22.2636 5.00179 22.2636Z" fill="#FF7779"/>
<path id="Vector_11" d="M41.0275 86.9876C42.568 88.5202 45.1751 88.5202 46.8342 86.9876C48.3747 85.4549 48.3747 82.8613 46.8342 81.2107C45.2936 79.6781 42.6865 79.6781 41.0275 81.2107C39.4869 82.8613 39.4869 85.4549 41.0275 86.9876Z" fill="#FF7779"/>
<path id="Vector_12" d="M30.8358 75.0803C33.061 75.0803 34.865 73.2857 34.865 71.0719C34.865 68.8581 33.061 67.0635 30.8358 67.0635C28.6105 67.0635 26.8066 68.8581 26.8066 71.0719C26.8066 73.2857 28.6105 75.0803 30.8358 75.0803Z" fill="#FF7779"/>
<path id="Vector_13" d="M14.7189 60.815C16.2594 62.3476 18.8665 62.3476 20.5256 60.815C22.1847 59.2823 22.0661 56.6887 20.5256 55.0381C18.985 53.5055 16.378 53.5055 14.7189 55.0381C13.1783 56.6887 13.1783 59.2823 14.7189 60.815Z" fill="#FF7779"/>
<path id="Vector_14" d="M4.52816 48.9079C6.7534 48.9079 8.5573 47.1133 8.5573 44.8995C8.5573 42.6857 6.7534 40.8911 4.52816 40.8911C2.30293 40.8911 0.499023 42.6857 0.499023 44.8995C0.499023 47.1133 2.30293 48.9079 4.52816 48.9079Z" fill="#FF7779"/>
<path id="Vector_15" d="M27.3996 100.545C28.9401 102.078 31.5472 102.078 33.2063 100.545C34.7468 99.0128 34.7468 96.4191 33.2063 94.7686C31.6657 93.236 29.0586 93.236 27.3996 94.7686C25.859 96.4191 25.859 99.0128 27.3996 100.545Z" fill="#FF7779"/>
<path id="Vector_16" d="M17.2078 88.6381C19.4331 88.6381 21.237 86.8435 21.237 84.6297C21.237 82.416 19.4331 80.6213 17.2078 80.6213C14.9826 80.6213 13.1787 82.416 13.1787 84.6297C13.1787 86.8435 14.9826 88.6381 17.2078 88.6381Z" fill="#FF7779"/>
<path id="Vector_17" d="M4.05359 75.5517C6.27882 75.5517 8.08272 73.7571 8.08272 71.5433C8.08272 69.3295 6.27882 67.5349 4.05359 67.5349C1.82835 67.5349 0.0244141 69.3295 0.0244141 71.5433C0.0244141 73.7571 1.82835 75.5517 4.05359 75.5517Z" fill="#FF7779"/>
<path id="Vector_18" d="M19.5783 114.103C21.1189 112.571 21.1189 109.977 19.5783 108.326C18.0378 106.794 15.4307 106.794 13.7716 108.326C12.2311 109.859 12.2311 112.453 13.7716 114.103C15.4307 115.754 18.0378 115.754 19.5783 114.103Z" fill="#FF7779"/>
<path id="Vector_19" d="M3.57992 102.196C5.80515 102.196 7.60909 100.401 7.60909 98.1876C7.60909 95.9738 5.80515 94.1792 3.57992 94.1792C1.35468 94.1792 -0.449219 95.9738 -0.449219 98.1876C-0.449219 100.401 1.35468 102.196 3.57992 102.196Z" fill="#FF7779"/>
</g>
</svg>
