<svg width="88" height="20" viewBox="0 0 88 20" fill="none" xmlns="http://www.w3.org/2000/svg">
<g id="Group">
<g id="Group_2">
<path id="Vector" d="M87.9 9.86627L78.5 19.3174L76.5 17.3277L84 9.86627L76.5 2.50435L78.5 0.514648L87.9 9.86627Z" fill="#FE5355"/>
</g>
<g id="Group_3">
<path id="Vector_2" d="M72.6002 9.86627L63.2002 19.3174L61.2002 17.3277L68.7002 9.86627L61.2002 2.50435L63.2002 0.514648L72.6002 9.86627Z" fill="#FE5355"/>
</g>
<g id="Group_4">
<path id="Vector_3" d="M57.3004 9.86627L47.9004 19.3174L45.9004 17.3277L53.4004 9.86627L45.9004 2.50435L47.9004 0.514648L57.3004 9.86627Z" fill="#FE5355"/>
</g>
<g id="Group_5">
<path id="Vector_4" d="M41.9996 9.86627L32.5996 19.3174L30.5996 17.3277L37.9996 9.86627L30.5996 2.50435L32.5996 0.514648L41.9996 9.86627Z" fill="#FE5355"/>
</g>
<g id="Group_6">
<path id="Vector_5" d="M26.6998 9.86627L17.1998 19.3174L15.2998 17.3277L22.6998 9.86627L15.2998 2.50435L17.1998 0.514648L26.6998 9.86627Z" fill="#FE5355"/>
</g>
<g id="Group_7">
<path id="Vector_6" d="M11.4 9.86627L1.90002 19.3174L0 17.3277L7.40002 9.86627L0 2.50435L1.90002 0.514648L11.4 9.86627Z" fill="#FE5355"/>
</g>
</g>
</svg>
