<svg width="18" height="18" viewBox="0 0 18 18" fill="none" xmlns="http://www.w3.org/2000/svg">
<g id="map-pin" clip-path="url(#clip0_0_5288)">
<path id="Vector" d="M10.7036 4C11.4361 4.14292 12.1094 4.50119 12.6371 5.02895C13.1649 5.55671 13.5232 6.22995 13.6661 6.9625M10.7036 1C12.2255 1.16908 13.6448 1.85063 14.7283 2.93276C15.8118 4.01488 16.4951 5.43326 16.6661 6.955M15.9161 12.94V15.19C15.9169 15.3989 15.8741 15.6056 15.7905 15.797C15.7068 15.9884 15.5841 16.1602 15.4301 16.3014C15.2762 16.4426 15.0945 16.5501 14.8966 16.617C14.6988 16.6839 14.4891 16.7088 14.2811 16.69C11.9732 16.4392 9.75634 15.6506 7.80859 14.3875C5.99646 13.236 4.46009 11.6996 3.30859 9.8875C2.04107 7.9309 1.25227 5.70325 1.00609 3.385C0.987345 3.1776 1.01199 2.96857 1.07846 2.77122C1.14493 2.57387 1.25177 2.39252 1.39216 2.23872C1.53256 2.08491 1.70344 1.96203 1.89393 1.87789C2.08442 1.79375 2.29034 1.7502 2.49859 1.75H4.74859C5.11257 1.74642 5.46543 1.87531 5.74141 2.11265C6.01739 2.34999 6.19764 2.67958 6.24859 3.04C6.34355 3.76005 6.51967 4.46704 6.77359 5.1475C6.87449 5.41594 6.89633 5.70769 6.83652 5.98816C6.7767 6.26863 6.63773 6.52608 6.43609 6.73L5.48359 7.6825C6.55125 9.56016 8.10593 11.1148 9.98359 12.1825L10.9361 11.23C11.14 11.0284 11.3975 10.8894 11.6779 10.8296C11.9584 10.7698 12.2501 10.7916 12.5186 10.8925C13.199 11.1464 13.906 11.3225 14.6261 11.4175C14.9904 11.4689 15.3231 11.6524 15.561 11.9331C15.7988 12.2138 15.9252 12.5722 15.9161 12.94Z" stroke="#DF2326" stroke-width="2" stroke-linecap="round" stroke-linejoin="round"/>
</g>
<defs>
<clipPath id="clip0_0_5288">
<rect width="18" height="18" fill="white"/>
</clipPath>
</defs>
</svg>
