<svg width="24" height="25" viewBox="0 0 24 25" fill="none" xmlns="http://www.w3.org/2000/svg">
<g id="4 - Filled / map-marker">
<path id="map-marker-Filled" d="M14 10.9123C14 12.0067 13.1 12.902 12 12.902C10.9 12.902 10 12.0067 10 10.9123C10 9.81799 10.9 8.92262 12 8.92262C13.1 8.92262 14 9.81799 14 10.9123ZM19.5 10.9123C19.5 16.961 14.83 20.7514 12.83 22.0945C12.58 22.2735 12.29 22.3531 12 22.3531C11.71 22.3531 11.42 22.2735 11.16 22.0945C9.16 20.7514 4.5 16.971 4.5 10.9123C4.5 6.65435 7.72 3.45093 12 3.45093C16.27 3.45093 19.5 6.65435 19.5 10.9123ZM16 10.9123C16 8.7137 14.21 6.93291 12 6.93291C9.79 6.93291 8 8.7137 8 10.9123C8 13.1109 9.79 14.8917 12 14.8917C14.21 14.8917 16 13.1109 16 10.9123Z" fill="#EE6C74"/>
</g>
</svg>
