<svg width="38" height="38" viewBox="0 0 38 38" fill="none" xmlns="http://www.w3.org/2000/svg">
<g id="Speed">
<g id="Group">
<path id="Vector" d="M29.3 30.8406H8.7C6.6 30.8406 4.8 29.5472 4 27.657C3.4 25.8663 3 23.8766 3 21.8869C3 13.1322 10.2 5.96924 19 5.96924C27.8 5.96924 35 13.1322 35 21.8869C35 23.8766 34.6 25.9658 33.9 27.657C33.2 29.5472 31.3 30.8406 29.3 30.8406ZM19 7.95894C11.3 7.95894 5 14.2265 5 21.8869C5 23.6776 5.3 25.4684 5.9 26.9606C6.4 28.055 7.5 28.8508 8.7 28.8508H29.3C30.5 28.8508 31.7 28.055 32.1 26.9606C32.7 25.3689 33 23.5781 33 21.8869C33 14.2265 26.7 7.95894 19 7.95894Z" fill="white"/>
</g>
<g id="Group_2">
<g id="Group_3">
<path id="Vector_2" d="M14.0002 15.0226L12.5002 13.2314L11.7002 13.8285L13.2002 15.6197C13.5002 15.4207 13.7002 15.2217 14.0002 15.0226Z" fill="white"/>
</g>
<g id="Group_4">
<path id="Vector_3" d="M20 10.9434H19V13.4311C19.3 13.4311 19.7 13.4311 20 13.5306V10.9434Z" fill="white"/>
</g>
<g id="Group_5">
<path id="Vector_4" d="M11.9004 17.2112L9.90039 16.0171L9.40039 16.9127L11.4004 18.1068C11.5004 17.7088 11.7004 17.4102 11.9004 17.2112Z" fill="white"/>
</g>
<g id="Group_6">
<path id="Vector_5" d="M26.7002 18.2063L29.0002 16.9127L28.5002 16.0171L26.2002 17.3107C26.4002 17.6093 26.5002 17.9078 26.7002 18.2063Z" fill="white"/>
</g>
<g id="Group_7">
<path id="Vector_6" d="M10.7002 19.8972L8.4002 19.499L8.2002 20.4944L10.5002 20.8925C10.6002 20.5939 10.6002 20.2953 10.7002 19.8972Z" fill="white"/>
</g>
<g id="Group_8">
<path id="Vector_7" d="M22.6002 14.1277L23.5002 11.7395L22.6002 11.4409L21.7002 13.8292C22.0002 13.9287 22.3002 14.0282 22.6002 14.1277Z" fill="white"/>
</g>
<g id="Group_9">
<path id="Vector_8" d="M27.4998 20.9921L30.1998 20.4944L29.9998 19.499L27.2998 19.9967C27.3998 20.2953 27.4998 20.6935 27.4998 20.9921Z" fill="white"/>
</g>
<g id="Group_10">
<path id="Vector_9" d="M25.0002 15.8187L26.7002 13.8285L25.9002 13.2314L24.2002 15.2217C24.5002 15.4207 24.8002 15.6197 25.0002 15.8187Z" fill="white"/>
</g>
<g id="Group_11">
<path id="Vector_10" d="M16.7 13.7297L15.9 11.4409L15 11.7395L15.8 14.0282C16.1 13.9287 16.4 13.8292 16.7 13.7297Z" fill="white"/>
</g>
<g id="Group_12">
<path id="Vector_11" d="M27.2998 23.877L29.9998 24.3746L30.1998 23.3793L27.4998 22.8816C27.3998 23.1802 27.3998 23.5783 27.2998 23.877Z" fill="white"/>
</g>
<g id="Group_13">
<path id="Vector_12" d="M10.5002 22.981L8.2002 23.3791L8.4002 24.3745L10.7002 23.9763C10.6002 23.5782 10.6002 23.2796 10.5002 22.981Z" fill="white"/>
</g>
</g>
<g id="Group_14">
<path id="Vector_13" d="M19 21.8866C18.7 21.8866 18.5 21.7872 18.3 21.5882C17.9 21.1902 17.9 20.5933 18.3 20.1954L26 12.535C26.4 12.1371 27 12.1371 27.4 12.535C27.8 12.933 27.8 13.5299 27.4 13.9278L19.7 21.5882C19.5 21.7872 19.3 21.8866 19 21.8866Z" fill="white"/>
</g>
<g id="Group_15">
<path id="Vector_14" d="M19 23.379C20.3807 23.379 21.5 22.2655 21.5 20.8919C21.5 19.5183 20.3807 18.4048 19 18.4048C17.6193 18.4048 16.5 19.5183 16.5 20.8919C16.5 22.2655 17.6193 23.379 19 23.379Z" fill="white"/>
</g>
<g id="Group_16">
<path id="Vector_15" d="M23.1004 26.8615H14.8004C14.3004 26.8615 13.9004 26.4634 13.9004 25.9659V25.6673C13.9004 25.1698 14.3004 24.7717 14.8004 24.7717H23.1004C23.6004 24.7717 24.0004 25.1698 24.0004 25.6673V25.9659C24.0004 26.5629 23.6004 26.8615 23.1004 26.8615Z" fill="white"/>
</g>
</g>
</svg>
