<svg width="115" height="24" viewBox="0 0 115 24" fill="none" xmlns="http://www.w3.org/2000/svg">
<path id="Symbol_1_" fill-rule="evenodd" clip-rule="evenodd" d="M24.57 16.4126C19.61 16.4126 15.27 19.0788 12.92 23.0483C15.38 19.7851 19.31 17.6761 23.72 17.6761C28.15 17.6761 32.08 19.7951 34.54 23.0781H36.22C33.89 19.0887 29.55 16.4126 24.57 16.4126ZM59.04 23.0781L83.06 21.3371C85.54 18.3327 89.29 16.4225 93.5 16.4225C98.46 16.4225 102.8 19.0887 105.15 23.0582C102.69 19.7951 98.76 17.686 94.35 17.686C89.92 17.686 85.99 19.805 83.53 23.0881H59.04V23.0781ZM111.99 15.7958C113.22 17.487 113.95 19.5663 113.95 21.8246C113.95 22.5409 113.88 23.2373 113.74 23.9138C112.39 19.3076 109 15.6266 104.58 13.8359C81.81 3.96697 58.18 -4.86732 34.7 12.8411C22.03 12.0352 10.7 14.9999 0 22.133C8.83 14.5622 22.21 10.6424 34.14 11.3289C56.59 -4.51911 73.95 -0.858041 104.85 11.2493H113.05C113.42 11.2493 113.74 11.4383 113.92 11.7567C114.1 12.085 114.09 12.4531 113.89 12.7615L111.99 15.7958ZM41.19 12.9605H74.38C78.61 12.9605 82.41 11.1001 85.02 8.16527C82.51 10.3639 79.23 11.7069 75.64 11.7069L71 11.8761L72.38 5.64829L69.78 11.9158L41.19 12.9605Z" fill="#DF2326"/>
</svg>
