<svg width="38" height="38" viewBox="0 0 38 38" fill="none" xmlns="http://www.w3.org/2000/svg">
<g id="Used">
<path id="Vector" d="M19.0996 2.98462C10.2996 2.98462 3.09961 10.1476 3.09961 18.9023C3.09961 27.657 10.2996 34.8199 19.0996 34.8199C27.8996 34.8199 35.0996 27.657 35.0996 18.9023C35.0996 10.1476 27.8996 2.98462 19.0996 2.98462ZM5.99961 13.928C7.99961 8.65528 13.0996 4.97432 19.0996 4.97432C25.0996 4.97432 30.1996 8.75476 32.1996 13.928C32.7996 15.5198 31.3996 17.211 29.6996 16.7136L26.4996 15.9177H26.3996H26.1996C21.4996 14.7239 16.5996 14.7239 11.9996 15.9177H11.7996L11.6996 16.0172L8.49961 16.8131C6.79961 17.211 5.39961 15.5198 5.99961 13.928ZM17.9996 30.2436C17.9996 31.6364 16.6996 32.6312 15.2996 32.2333C10.2996 30.8405 6.39961 26.7616 5.39961 21.5884C5.19961 20.494 5.89961 19.3997 6.99961 19.1012C9.59961 18.5043 12.2996 19.2007 14.0996 21.0909L15.8996 22.8817C17.2996 24.2745 17.9996 26.1647 17.9996 28.1544V30.2436ZM17.3996 19.2007C17.3996 18.2059 18.1996 17.41 19.1996 17.41C20.1996 17.41 20.9996 18.2059 20.9996 19.2007C20.9996 20.1956 20.1996 20.9915 19.1996 20.9915C18.1996 20.9915 17.3996 20.1956 17.3996 19.2007ZM22.7996 32.3328C21.3996 32.7307 19.9996 31.7359 19.9996 30.3431V28.3534C19.9996 26.3637 20.7996 24.4734 22.1996 23.0806L23.9996 21.2899C25.8996 19.3997 28.5996 18.7033 31.1996 19.3002C32.2996 19.5987 32.9996 20.693 32.7996 21.7873C31.6996 26.8611 27.7996 30.94 22.7996 32.3328Z" fill="#8A78F0"/>
</g>
</svg>
