<svg width="25" height="18" viewBox="0 0 25 18" fill="none" xmlns="http://www.w3.org/2000/svg">
<path id="&#226;&#128;&#157;" d="M10.9155 6.69014C10.9155 8.52113 10.6338 10.1174 10.0704 11.4789C9.50704 12.7934 8.77934 13.8967 7.88732 14.7887C6.99531 15.6338 5.96244 16.2676 4.78873 16.6901C3.66197 17.0657 2.53521 17.2535 1.40845 17.2535V14.7887C2.62911 14.7887 3.75587 14.3897 4.78873 13.5915C5.86854 12.7465 6.50235 11.6197 6.69014 10.2113C6.5493 10.3052 6.38498 10.3756 6.19718 10.4225C5.8216 10.5164 5.39906 10.5634 4.92958 10.5634C3.52113 10.5634 2.34742 10.0469 1.40845 9.01408C0.469484 7.93427 0 6.69014 0 5.28169C0 3.87324 0.469484 2.65258 1.40845 1.61972C2.39437 0.539906 3.68545 0 5.28169 0C7.06573 0 8.4507 0.680751 9.43662 2.04225C10.4225 3.35681 10.9155 4.9061 10.9155 6.69014ZM25 6.69014C25 8.52113 24.7183 10.1174 24.1549 11.4789C23.5915 12.7934 22.8638 13.8967 21.9718 14.7887C21.0798 15.6338 20.0469 16.2676 18.8732 16.6901C17.7465 17.0657 16.6197 17.2535 15.493 17.2535V14.7887C16.7136 14.7887 17.8404 14.3897 18.8732 13.5915C19.9531 12.7465 20.5869 11.6197 20.7746 10.2113C20.6338 10.3052 20.4695 10.3756 20.2817 10.4225C19.9061 10.5164 19.4836 10.5634 19.0141 10.5634C17.6056 10.5634 16.4319 10.0469 15.493 9.01408C14.554 7.93427 14.0845 6.69014 14.0845 5.28169C14.0845 3.87324 14.554 2.65258 15.493 1.61972C16.4789 0.539906 17.77 0 19.3662 0C21.1502 0 22.5352 0.680751 23.5211 2.04225C24.507 3.35681 25 4.9061 25 6.69014Z" fill="white"/>
</svg>
